<?xml version="1.0" encoding="UTF-8" standalone="no"?> <!-- Created with Inkscape (http://www.inkscape.org/) --> <svg xmlns:inkscape="http://www.inkscape.org/namespaces/inkscape" xmlns:sodipodi="http://sodipodi.sourceforge.net/DTD/sodipodi-0.dtd" xmlns="http://www.w3.org/2000/svg" xmlns:svg="http://www.w3.org/2000/svg" width="1022.6346" height="768" viewBox="0 0 1022.6346 768" version="1.1" id="SVGRoot" sodipodi:docname="C:\Users\betoj\AppData\Local\Temp\ink_ext_XXXXXX.svgRD2761" xml:space="preserve" inkscape:export-filename="pattern-verde.png" inkscape:export-xdpi="72" inkscape:export-ydpi="72"><defs id="defs189"></defs><g inkscape:label="Capa 1" inkscape:groupmode="layer" id="layer1" transform="translate(-3.0610536e-5)"><rect style="fill:#e32c44;fill-opacity:0.3;stroke-width:1.99937;stroke-linecap:square;paint-order:stroke fill markers;stop-color:#000000" id="rect6212" width="1022.6345" height="768" x="3.0610536e-05" y="0" inkscape:export-filename=".\pattern-rojo-2.svg" inkscape:export-xdpi="72" inkscape:export-ydpi="72"></rect><g id="g6216" transform="matrix(0.37139664,0,0,0.37139664,874.16966,-34.509686)" style="fill:#e32c44;fill-opacity:0.3;stroke-width:2.69254" inkscape:export-filename=".\pattern-rojo.png" inkscape:export-xdpi="72" inkscape:export-ydpi="72"><path style="fill:#e32c44;fill-opacity:0.3;stroke-width:2.69254" d="m 152.63364,353.80764 c -7.82606,-2.34447 -14.33034,-9.76988 -16.62641,-18.98103 -0.97152,-3.89745 -0.78938,-5.80326 1.33794,-14 3.8001,-14.64205 4.01383,-17.57993 2.10804,-28.97735 -4.30991,-25.77516 2.00744,-48.77677 19.6921,-71.69938 19.20814,-24.89732 53.23949,-40.23366 80.6143,-36.3291 17.36031,2.47615 21.30898,2.43023 32.19632,-0.37446 11.61502,-2.99214 15.15452,-3.18604 20.93428,-1.14683 5.99821,2.1163 10.42859,5.86304 13.34336,11.28441 3.51195,6.53211 4.14426,11.60424 2.27566,18.25433 -4.61733,16.43237 -4.92522,19.6928 -3.01176,31.89369 3.12308,19.91379 1.11669,34.71595 -6.99506,51.60631 -18.4653,38.44858 -60.55789,62.9059 -96.58034,56.1167 -11.87181,-2.2375 -18.94895,-2.02807 -29.4291,0.87088 -9.25644,2.56045 -14.86246,2.97876 -19.85933,1.48183 z m 18.99324,-88.96941 c 0.65434,-1.375 3.01555,-6.325 5.24713,-11 7.67109,-16.07041 18.97425,-26.81012 35.42873,-33.66264 4.87451,-2.03 9.2634,-4.52668 9.83503,-5.59478 1.44619,-2.70224 0.27435,-6.42644 -2.61856,-8.32195 -2.25541,-1.4778 -2.8669,-1.46906 -7.73412,0.11048 -19.66793,6.38276 -38.07565,22.85385 -47.0802,42.127 -4.8227,10.32241 -5.60948,14.68484 -3.14052,17.41302 2.64991,2.92812 8.45331,2.31036 10.06251,-1.07113 z" id="path6214"></path></g><path style="fill:#e32c44;fill-opacity:0.3;stroke-width:0.999998" d="m 421.22113,730.93126 c -0.9571,-0.95703 -1.0209,-1.19442 -1.0209,-3.79598 0,-3.6026 0.785,-7.96165 2.0294,-11.26881 3.4036,-9.04548 12.1343,-16.27964 21.7195,-17.99638 1.6588,-0.2971 5.4747,-0.4736 10.4059,-0.48132 l 7.7867,-0.0122 0.8572,-0.85724 c 0.9911,-0.9911 1.0798,-1.8129 0.3136,-2.90677 -0.5368,-0.76635 -0.651,-0.77606 -8.9931,-0.76403 -10.3274,0.0149 -12.9305,0.4218 -18.8396,2.94482 -1.055,0.45045 -0.7235,-0.85583 0.9742,-3.83858 2.8427,-4.99456 7.4465,-8.79771 13.0419,-10.7739 l 3.0097,-1.06297 11.176,-0.21869 c 12.1811,-0.23835 12.5689,-0.29819 15.9364,-2.45909 1.8269,-1.17228 4.0009,-3.39279 5.0338,-5.14143 1.0817,-1.83106 1.9236,-1.40949 2.8757,1.43988 1.9263,5.76506 2.6467,13.57534 1.8419,19.96935 -1.7492,13.89671 -9.6152,26.07521 -20.0999,31.11966 -5.723,2.75348 -12.846,3.49334 -18.5101,1.92261 -7.6005,-2.10771 -13.7998,-8.02881 -16.2189,-15.49101 -0.2335,-0.72032 -0.5609,-1.30968 -0.7275,-1.30968 -0.4075,0 -3.302,3.58034 -4.3758,5.41269 -1.7223,2.93887 -2.6164,6.2654 -2.8486,10.59849 -0.2055,3.8344 -0.2727,4.1204 -1.1808,5.02854 -1.3128,1.31278 -2.8371,1.29168 -4.1867,-0.058 z" id="path6218"></path><path style="fill:#e32c44;fill-opacity:0.3;stroke-width:1" d="m 421.32799,567.71704 c -0.62058,-0.66434 -1.24345,-1.90449 -1.38415,-2.75589 -0.1407,-0.8514 -0.25784,-7.0974 -0.26031,-13.87999 l -0.004,-12.33197 -1.32691,-0.20548 c -0.7298,-0.11302 -2.42928,-0.31931 -3.7766,-0.45844 -8.75852,-0.90441 -18.86731,-7.13468 -24.15576,-14.88774 -4.78848,-7.02008 -7.62161,-18.44436 -5.62007,-22.66229 0.97649,-2.05781 2.40903,-2.45713 8.54524,-2.38197 8.65803,0.10605 14.27293,1.78995 21.02231,6.30453 5.13744,3.43639 8.71067,7.58975 11.73156,13.63623 3.33834,6.68186 3.78432,10.25449 3.78592,30.32792 10e-4,17.6475 -0.0811,18.43166 -2.08782,19.8372 -0.59262,0.41509 -1.77702,0.66579 -3.14555,0.66579 -1.90562,0 -2.34379,-0.15927 -3.32336,-1.2079 z m 12.81242,-43.1926 c -1.23075,-5.55813 -3.74311,-10.83006 -7.57149,-15.88807 l -2.05204,-2.71117 0.74524,-1.3844 c 1.56847,-2.91363 6.53802,-7.98797 10.45246,-10.67287 6.25172,-4.28799 15.19138,-6.59155 23.67475,-6.10045 3.16542,0.18324 3.34473,0.24785 4.65466,1.67723 1.22154,1.33294 1.36241,1.73504 1.36241,3.88885 0,11.17297 -6.19287,22.56416 -15.76512,28.9984 -3.91633,2.63247 -10.85627,5.35665 -13.64622,5.35665 -1.10693,0 -1.18257,-0.12904 -1.85465,-3.16417 z" id="path6220"></path><path style="fill:#e32c44;fill-opacity:0.3;stroke-width:1" d="m 130.90018,461.65625 c -5.34351,-0.15551 -6.08848,-0.25123 -6.94593,-0.89246 -1.581,-1.18234 -2.31059,-2.44038 -2.48839,-4.29074 -0.13916,-1.44825 -0.0107,-2.02029 0.74231,-3.30517 1.2462,-2.12648 2.54486,-2.81342 7.01327,-3.70977 6.61818,-1.32757 9.7251,-2.84185 12.7347,-6.20673 1.41269,-1.57944 3.12417,-4.67824 8.54657,-15.47437 l 6.78014,-13.49943 h 2.60409 2.6041 l 0.008,6.00942 c 0.009,6.72664 0.32468,8.01575 2.3922,9.75546 1.63833,1.37856 3.1328,1.64965 9.10591,1.6518 l 5.40923,0.002 1.47112,2.96629 c 0.80912,1.63145 1.47113,3.16506 1.47113,3.40801 0,0.73985 -4.86481,6.13789 -8.12713,9.01793 -8.84148,7.80545 -20.44177,13.01789 -31.60404,14.20087 -5.28266,0.55985 -5.18892,0.55692 -11.71693,0.36694 z m 55.28019,-28.31442 c -0.50951,-0.25409 -1.39587,-1.43159 -2.13592,-2.8375 -1.77032,-3.36318 -2.06943,-3.48518 -8.83781,-3.60467 -3.06568,-0.0541 -5.93701,-0.17837 -6.38075,-0.27612 -1.46844,-0.32347 -1.80601,-1.95036 -1.80601,-8.70366 v -6.13451 l -1.01832,-1.01831 c -0.87918,-0.87918 -1.2807,-1.01832 -2.93849,-1.01832 -2.02774,0 -3.69237,-0.46509 -4.13043,-1.15401 -0.46876,-0.73722 -0.28929,-2.20814 0.33595,-2.7533 1.03045,-0.89848 4.53526,-2.01054 7.25481,-2.30192 3.56989,-0.38248 7.34629,0.0925 10.51379,1.32247 3.16689,1.22972 3.2959,1.144 3.1415,-2.08733 -0.0765,-1.60069 -0.38928,-2.8449 -1.0597,-4.21519 -1.21913,-2.49181 -1.24095,-4.09382 -0.0707,-5.19319 1.09988,-1.03328 2.96145,-1.10179 4.01709,-0.14782 1.01624,0.91837 2.3122,3.54761 2.94374,5.97226 0.66738,2.56222 0.65451,5.35384 -0.0358,7.77105 -0.99257,3.47552 -0.99689,3.38499 0.22794,4.77999 1.59962,1.82187 3.70069,6.47581 4.13663,9.16278 0.67426,4.15594 0.28086,8.94425 -0.929,11.30721 -0.85321,1.66638 -1.617,1.93373 -3.22848,1.13009 z" id="path6222"></path><path style="fill:#e32c44;fill-opacity:0.3;stroke-width:1" d="m 106.90968,704.64311 c -1.17456,-0.61541 -1.80724,-1.63297 -1.80603,-2.90474 3.8e-4,-0.49164 1.57678,-4.28112 3.50291,-8.42107 1.92614,-4.13994 5.59391,-12.04347 8.15061,-17.5634 2.5567,-5.51993 5.2512,-11.2343 5.98778,-12.69862 l 1.33924,-2.66238 4.31517,4.30292 c 3.6244,3.61412 4.50544,4.30292 5.50383,4.30292 0.66133,0 1.47207,-0.31316 1.8275,-0.70591 1.29707,-1.43324 0.8199,-2.29447 -3.99326,-7.20727 -2.54766,-2.60038 -4.63211,-4.99562 -4.63211,-5.32275 0,-0.92357 3.3483,-3.64899 6.09114,-4.95803 11.45312,-5.46606 24.82259,0.75206 27.68058,12.87419 1.62607,6.89704 -0.32661,13.6351 -5.43057,18.73907 -2.04418,2.04417 -3.22929,2.81618 -7.19164,4.68476 -10.26092,4.8389 -12.48682,5.82849 -13.11012,5.82849 -0.21383,0 -2.51475,-2.08444 -5.11314,-4.6321 -3.99382,-3.91585 -4.91023,-4.63211 -5.92646,-4.63211 -1.29981,0 -2.40392,1.13043 -2.40392,2.46121 0,0.43036 1.78801,2.55765 4.23048,5.03323 l 4.23046,4.28782 -9.78774,4.56277 c -10.80544,5.03719 -11.94285,5.42839 -13.46471,4.631 z m 61.19848,-48.00127 c -0.90814,-0.18962 -2.51607,-0.8155 -3.57319,-1.39085 -2.51472,-1.36869 -9.06439,-8.12074 -10.0595,-10.37035 -1.67364,-3.78354 -1.32918,-8.94703 0.85027,-12.74574 1.5938,-2.77791 2.32959,-3.58677 3.52803,-3.87833 1.39006,-0.33817 2.87987,1.21433 4.57638,4.76895 1.06742,2.23651 1.25781,3.11044 1.41767,6.5074 0.11225,2.38517 0.0159,4.40815 -0.24579,5.15872 -0.42486,1.21874 -0.41671,1.23154 0.62637,0.98527 4.39632,-1.03793 8.84311,-0.50801 12.87292,1.53404 5.39629,2.73452 5.08591,5.2353 -1.00785,8.12053 -2.98087,1.41135 -6.23133,1.88538 -8.98531,1.31036 z" id="path6224"></path><path style="fill:#e32c44;fill-opacity:0.3;stroke-width:0.999999" d="m 513.38815,95.876872 c -5.22257,-0.78392 -10.22296,-4.73798 -13.79742,-10.9103 -2.79426,-4.82508 -4.59701,-13.992579 -3.85371,-19.597109 1.05606,-7.96275 3.94482,-13.19537 8.52696,-15.44551 1.70181,-0.8357 2.05331,-0.88835 5.78595,-0.86658 3.77511,0.022 4.14915,0.085 7.47124,1.25785 4.41118,1.55736 7.09562,1.65887 10.36373,0.39189 5.5165,-2.13864 10.99624,-2.41522 14.44281,-0.72896 3.42366,1.67503 5.45989,4.35006 7.1652,9.41301 1.24328,3.69121 1.67905,7.8558 1.27177,12.15422 -0.77492,8.178589 -3.58186,14.651089 -8.42203,19.420299 -4.7612,4.6914 -9.80197,5.993428 -16.23111,4.19252 l -2.85494,-0.79973 -2.86772,0.77082 c -3.39608,0.912848 -4.85898,1.069058 -7.00073,0.74758 z m 9.45757,-49.440849 c -1.12826,-0.23415 -1.43881,-1.21224 -1.2893,-4.06073 0.29787,-5.67509 3.69727,-9.10628 9.50448,-9.59336 2.04583,-0.17159 2.45725,-0.11576 3.12047,0.4235 0.68316,0.55546 0.7607,0.85982 0.7333,2.87848 -0.0386,2.84138 -0.43965,4.33746 -1.65456,6.17164 -1.07338,1.62051 -2.70371,2.87244 -4.61876,3.54675 -1.43037,0.50366 -4.69974,0.86114 -5.79563,0.63372 z" id="path6226"></path><path style="fill:#e32c44;fill-opacity:0.3;stroke-width:1" d="m 316.83806,283.40708 c -2.6504,-0.12265 -5.88982,-0.50989 -7.19872,-0.86052 -4.85913,-1.30169 -9.05379,-4.14781 -10.99495,-7.46016 -6.06722,-10.35293 -3.97488,-33.15705 4.07765,-44.44165 3.33493,-4.6735 9.05205,-9.11529 13.56,-10.53518 4.87045,-1.53406 9.92977,-1.21609 14.45673,0.90861 2.61424,1.22697 3.46857,1.99485 14.31683,12.86807 10.09976,10.123 11.68108,11.86335 12.69589,13.9727 2.84951,5.92292 2.37905,13.27035 -1.24894,19.50529 -1.36342,2.34312 -5.68163,6.81981 -8.58612,8.90125 -5.88306,4.21596 -13.69349,6.47895 -25.1474,7.28622 -0.61163,0.0431 -3.28056,-0.022 -5.93097,-0.14463 z m 2.4442,-10.88705 c 1.41232,-0.9235 2.56006,-2.8728 2.56006,-4.34795 0,-2.87346 -4.65074,-2.1655 -6.49964,0.9894 -1.14788,1.9587 -1.17432,3.30727 -0.08,4.08124 0.99596,0.70442 2.1561,0.49584 4.01961,-0.72269 z m 13.28735,-4.26187 c 2.43068,-1.24004 4.00851,-4.61011 2.7892,-5.95743 -2.3637,-2.61186 -8.59482,2.85788 -6.64526,5.83329 0.69388,1.05898 1.94468,1.09925 3.85606,0.12414 z m -22.72459,-4.91674 c 2.13843,-1.46527 3.40145,-4.65441 2.28534,-5.77051 -0.24465,-0.24466 -1.10064,-0.44483 -1.9022,-0.44483 -1.22204,0 -1.71371,0.25634 -3.04475,1.58737 -1.74246,1.74246 -2.47135,3.91146 -1.64788,4.90368 0.68088,0.82041 2.91877,0.67723 4.30949,-0.27571 z m 37.06854,0 c 2.13843,-1.46527 3.40145,-4.65441 2.28534,-5.77051 -0.24465,-0.24466 -1.10064,-0.44483 -1.9022,-0.44483 -1.22204,0 -1.71372,0.25634 -3.04475,1.58737 -1.74247,1.74246 -2.47135,3.91146 -1.64788,4.90368 0.68088,0.82041 2.91876,0.67723 4.30949,-0.27571 z m -23.61109,-4.3504 c 2.93466,-1.49714 4.06878,-5.67171 1.76013,-6.4788 -0.84478,-0.29533 -1.35513,-0.19869 -2.68985,0.50938 -1.93377,1.02586 -3.12523,2.75572 -3.12523,4.53745 0,2.25552 1.44229,2.76485 4.05495,1.43197 z m 14.52564,-4.99313 c 2.07004,-1.40663 3.23578,-4.562 2.10365,-5.69412 -0.71723,-0.71723 -2.92416,-0.5179 -4.23872,0.38285 -2.13843,1.46528 -3.40145,4.65442 -2.28534,5.77053 0.74878,0.74878 2.98445,0.5165 4.42041,-0.45926 z m -23.65749,-4.40156 c 0.77555,-0.46949 1.7336,-1.34438 2.129,-1.9442 0.85444,-1.29619 0.94761,-3.59419 0.17182,-4.23803 -0.99222,-0.82348 -3.16122,-0.0946 -4.90368,1.64787 -1.33104,1.33104 -1.58737,1.82271 -1.58737,3.04475 0,0.80156 0.20017,1.65755 0.44482,1.9022 0.69037,0.69038 2.19772,0.52433 3.74541,-0.41259 z m 15.1596,-5.71469 c 1.92051,-1.9205 2.34886,-4.15813 0.96904,-5.06221 -2.15992,-1.41524 -6.60352,1.98619 -6.60352,5.05478 0,1.37465 0.72782,1.84485 2.5491,1.64682 1.26774,-0.13784 1.94221,-0.49622 3.08538,-1.63939 z m -10.04796,-8.43014 c 1.41232,-0.9235 2.56006,-2.8728 2.56006,-4.34795 0,-2.87346 -4.65074,-2.1655 -6.49964,0.9894 -1.14788,1.95871 -1.17432,3.30727 -0.08,4.08124 0.99596,0.70442 2.1561,0.49584 4.01961,-0.72269 z m 36.37491,1.65314 c -0.87208,-0.18209 -2.41618,-0.78313 -3.43133,-1.33564 -2.4149,-1.31436 -8.70457,-7.79838 -9.66017,-9.95869 -1.6072,-3.63332 -1.27641,-8.59185 0.81652,-12.23975 1.53052,-2.66764 2.23711,-3.4444 3.38797,-3.72438 0.83644,-0.20349 1.21469,-0.0379 2.11465,0.92546 1.61397,1.72777 3.33255,5.63858 3.59929,8.19057 0.1511,1.44568 0.39699,2.2074 0.71258,2.2074 0.76786,0 3.8681,-3.82152 6.08486,-7.50056 2.37776,-3.94622 3.22563,-4.46988 5.46091,-3.37273 2.18261,1.07129 2.35963,2.40728 0.76321,5.76 -1.17759,2.4731 -4.84298,7.54089 -6.34516,8.77285 -0.9647,0.79117 -0.76716,1.00851 1.34662,1.48155 2.5205,0.56407 6.29879,2.34955 7.48763,3.53839 1.97542,1.97543 0.81198,3.85665 -3.70896,5.99718 -2.86253,1.35533 -5.98396,1.81054 -8.62862,1.25835 z" id="path6228"></path><path style="fill:#e32c44;fill-opacity:0.3;stroke-width:1" d="m 200.99156,102.31377 c -2.3845,-0.658 -3.6958,-3.02477 -3.1223,-5.63571 0.1737,-0.790883 1.9667,-2.843983 5.8362,-6.682773 l 5.5854,-5.54116 -1.8381,-2.24612 c -2.9412,-3.5941 -3.4449,-5.01373 -3.4449,-9.70975 0,-3.670723 0.094,-4.201253 1.0908,-6.124013 1.4025,-2.70674 4.6971,-6.12401 5.9043,-6.12401 1.2598,0 4.583,3.25641 6.3205,6.19361 0.7862,1.32894 1.6341,3.407073 1.8842,4.618083 0.2501,1.21101 0.6415,2.20184 0.8697,2.20184 0.2282,0 1.3386,-0.93524 2.4675,-2.07832 l 2.0525,-2.07831 -1.627,-1.844883 c -5.5828,-6.33037 -5.3963,-14.33147 0.4734,-20.31261 2.632,-2.68198 3.2811,-2.65093 6.0804,0.29088 2.4032,2.52551 4.339,6.06046 5.0575,9.23578 l 0.4643,2.05155 2.4579,-2.35906 2.4579,-2.35906 -1.7735,-1.89606 c -0.9754,-1.04283 -2.2553,-2.82318 -2.8442,-3.95632 -0.9485,-1.8252 -1.0722,-2.47592 -1.0847,-5.70312 -0.013,-3.34713 0.086,-3.84701 1.2235,-6.15823 1.3172,-2.67705 4.8863,-6.46581 6.0909,-6.46581 1.0812,0 5.2265,4.55567 6.5406,7.18826 1.6101,3.22532 2.1464,6.06881 1.929,10.22688 l -0.1802,3.44476 h 5.0131 c 4.9702,0 5.0381,0.0119 7.9101,1.38348 3.6031,1.72074 8.0115,5.65782 8.0115,7.15494 0,1.31938 -3.3833,4.58883 -6.1445,5.93776 -5.663,2.76648 -10.6965,2.01076 -15.9976,-2.40181 l -2.4305,-2.02311 -2.2582,2.23465 c -1.242,1.22906 -2.257,2.32616 -2.2555,2.43801 0,0.11184 1.235,0.50063 2.7411,0.86396 3.2152,0.7756 5.8391,2.27476 8.8548,5.059203 2.8775,2.65675 2.9399,3.68509 0.3623,5.96888 -2.688,2.38168 -4.43,3.37953 -7.0885,4.06062 -4.7403,1.21441 -9.3224,-0.004 -13.2314,-3.51861 -1.043,-0.93778 -2.0614,-1.70505 -2.2631,-1.70505 -0.4596,0 -4.3052,4.03719 -4.3052,4.5197 0,0.1954 0.697,0.44875 1.5488,0.56301 3.5967,0.48241 10.9099,5.24954 11.8415,7.71881 0.6603,1.75028 -2.289,4.88402 -6.4536,6.85724 -2.2332,1.058103 -2.9225,1.199843 -5.7885,1.190093 -3.8724,-0.0132 -6.1721,-0.910483 -9.702,-3.785663 l -2.2338,-1.81945 -5.4479,5.367623 c -3.6299,3.57647 -5.8214,5.45016 -6.5671,5.615 -0.6157,0.13606 -1.2916,0.29266 -1.5021,0.34801 -0.2105,0.0554 -0.8789,-0.0363 -1.4853,-0.20362 z m 55.3689,-57.354516 c -1.1205,-0.48614 -1.3835,-1.70685 -1.1837,-5.49466 0.4163,-7.89214 5.3242,-12.68596 13.4866,-13.17294 3.3342,-0.19892 3.6142,-0.15753 4.426,0.65426 0.8143,0.81431 0.856,1.10378 0.6918,4.79722 -0.2096,4.71309 -1.2298,7.21318 -3.9766,9.74509 -2.6438,2.43689 -5.2396,3.4683 -9.2371,3.67016 -1.8465,0.0932 -3.7396,0.003 -4.207,-0.19913 z" id="path6230"></path><path style="fill:#e32c44;fill-opacity:0.3;stroke-width:0.999996" d="m 699.12872,172.21955 c -1.43349,-0.38336 -2.31491,-1.28752 -2.71935,-2.78952 -0.62246,-2.31164 0.0332,-3.59012 3.41637,-6.66159 1.6749,-1.52059 3.47581,-3.49828 4.002,-4.39484 0.8872,-1.51167 0.9743,-2.032 1.19845,-7.16005 0.13294,-3.04145 0.41905,-6.12065 0.63579,-6.84267 0.21674,-0.72201 1.34718,-2.36447 2.51208,-3.64988 3.22386,-3.55741 3.32046,-3.83286 3.57722,-10.20002 0.15723,-3.89917 0.39358,-5.92299 0.80147,-6.86286 0.31816,-0.73311 2.00028,-2.82021 3.73806,-4.63799 3.65916,-3.82763 3.92513,-4.21724 5.23504,-7.66868 1.22387,-3.22478 3.31989,-5.62289 6.3403,-7.25415 l 2.25214,-1.21633 7.84889,-0.21542 c 5.25587,-0.14425 8.79184,-0.41511 10.70306,-0.81986 3.56283,-0.75453 6.80117,-0.36207 10.04614,1.2175 2.63924,1.28472 5.90809,4.64302 7.14132,7.33677 0.92957,2.03045 1.51453,6.58099 1.14186,8.88281 -0.92663,5.72329 -1.09979,7.88169 -0.92975,11.58854 0.10367,2.2601 0.0299,4.9848 -0.16377,6.05488 -0.49256,2.72039 -2.07411,5.66286 -3.99584,7.43425 -1.56098,1.43887 -2.16613,1.7756 -6.63749,3.69344 -1.35663,0.58188 -3.01033,1.84282 -5.37194,4.09604 -4.69635,4.48086 -4.74307,4.50038 -11.39843,4.76203 -5.04671,0.19841 -5.68578,0.29917 -7.31375,1.15313 -0.98111,0.51466 -2.42603,1.60539 -3.21092,2.42386 -2.52629,2.63435 -3.51986,2.95403 -9.98954,3.21402 -3.13956,0.12617 -6.18115,0.42599 -6.75907,0.66626 -0.57793,0.24026 -2.69401,2.05388 -4.70241,4.03025 -3.86691,3.80524 -5.09065,4.43714 -7.39793,3.82008 z m 22.3567,-22.1341 c 0.42605,-0.22801 4.14818,-3.75834 8.27144,-7.84519 l 7.4968,-7.43062 6.66351,-0.003 6.66351,-0.003 0.73943,-0.94004 c 0.92351,-1.17405 0.92478,-1.58226 0.009,-2.74707 -0.70516,-0.89647 -0.88094,-0.93272 -4.99016,-1.02923 l -4.25924,-0.10004 5.68947,-5.70829 c 3.12921,-3.13957 5.87331,-6.0504 6.098,-6.46852 0.22468,-0.41812 0.29918,-1.10471 0.16554,-1.52577 -0.32082,-1.01082 -1.76594,-1.93056 -2.61162,-1.66215 -0.37062,0.11763 -5.29932,4.78677 -10.95268,10.37587 -5.65334,5.5891 -10.41517,10.162 -10.58182,10.162 -0.16665,0 -0.30301,-1.83481 -0.30301,-4.07736 0,-4.55767 -0.2746,-5.19863 -2.2272,-5.19863 -2.27803,0 -2.41081,0.431 -2.41081,7.82533 v 6.64441 l -2.35899,2.30869 c -2.6316,2.57548 -4.4196,4.83672 -4.4196,5.58936 0,0.59237 1.58217,2.24925 2.14785,2.24925 0.21803,0 0.74501,-0.18656 1.17105,-0.41457 z m -23.29993,5.49852 c -0.003,-3.10541 -0.56933,-4.25175 -3.75901,-7.61746 -1.64335,-1.73404 -3.26177,-3.67952 -3.59651,-4.32329 -0.43794,-0.84228 -0.67614,-2.52104 -0.84947,-5.98687 -0.21881,-4.37528 -0.35094,-5.07776 -1.44274,-7.67052 -0.97525,-2.31597 -1.1969,-3.29927 -1.17554,-5.21477 0.041,-3.67881 1.10457,-5.59054 5.45317,-9.80228 1.996,-1.93317 4.51648,-4.82124 5.60107,-6.41792 3.36924,-4.96006 6.96712,-7.05256 12.14004,-7.06051 2.65745,-0.004 3.15533,0.11446 5.64215,1.34351 1.50012,0.74141 2.81803,1.58391 2.92867,1.87225 0.11065,0.28833 -0.20849,1.27785 -0.7092,2.19892 -0.50069,0.92108 -1.26377,2.62043 -1.69572,3.77634 -0.62136,1.66281 -1.47446,2.82178 -4.08548,5.5503 -4.78163,4.99682 -5.51891,6.7931 -5.52599,13.46336 -0.003,2.19473 -0.16741,4.41959 -0.36683,4.94412 -0.19944,0.52454 -1.18183,1.8595 -2.18311,2.96657 -1.00128,1.10707 -2.31144,3.04467 -2.91148,4.30578 -1.031,2.16687 -1.10221,2.59929 -1.29539,7.86643 -0.16484,4.49464 -0.32686,5.76004 -0.83698,6.5371 -0.92406,1.4076 -1.32939,1.18507 -1.33165,-0.73106 z" id="path6232"></path><path style="fill:#e32c44;fill-opacity:0.3;stroke-width:1" d="m 83.824844,277.17236 c -6.41491,-1.19466 -13.04654,-4.54746 -17.646042,-8.92143 -1.52993,-1.45492 -1.93328,-2.3002 -1.69744,-3.55728 0.24358,-1.29841 1.19881,-2.00239 2.71704,-2.00239 0.95273,0 1.48219,0.28555 2.970022,1.60179 3.73857,3.30741 8.20746,5.74275 12.93897,7.0511 1.52362,0.42132 3.18842,0.54283 7.41969,0.54152 6.20902,-0.002 8.09215,-0.3574 12.350456,-2.3313 3.70507,-1.71745 6.16005,-3.4818 9.31492,-6.69449 6.14462,-6.25723 8.94402,-13.77684 8.47651,-22.76918 -0.3588,-6.90141 -2.89444,-13.09024 -7.38784,-18.03192 -2.31031,-2.5408 -2.69922,-3.75436 -1.62727,-5.07771 1.61607,-1.99506 3.35456,-1.59827 5.84159,1.33329 8.38536,9.88421 10.9497,22.14779 7.19864,34.42646 -3.45191,11.2994 -13.46271,20.83763 -25.062616,23.8795 -3.8712,1.01515 -11.82775,1.29303 -15.80663,0.55204 z m 6.56058,-9.53791 -0.79353,-0.62419 v -9.90449 c 0,-9.4407 0.0286,-9.93037 0.61089,-10.45735 0.38978,-0.35272 0.86934,-0.4866 1.32487,-0.36981 0.86964,0.22295 14.759286,14.12193 15.028706,15.0388 0.3269,1.11249 -0.89604,2.17676 -4.57873,3.98466 -2.445006,1.20031 -4.253776,1.85776 -5.995236,2.17916 -4.47085,0.82511 -4.73367,0.83231 -5.59697,0.15322 z m -9.92051,-1.51592 c -2.78972,-1.20753 -6.0451,-3.33747 -8.04039,-5.26066 -1.40915,-1.35824 -1.58813,-1.66722 -1.40928,-2.43302 0.13671,-0.58538 2.13462,-2.76961 6.00617,-6.56627 6.11138,-5.99319 6.63253,-6.3276 7.89449,-5.06565 0.59508,0.59507 0.62347,1.0391 0.62347,9.75019 0,7.75587 -0.0729,9.23079 -0.48527,9.81956 -0.66665,0.95176 -1.98885,0.88142 -4.58919,-0.24415 z m 21.799696,-15.53721 c -10.168996,-10.17562 -10.337556,-9.76036 3.91188,-9.63777 7.37894,0.0635 9.66333,0.17568 9.97542,0.48994 0.54095,0.54469 0.43517,3.99161 -0.20751,6.76282 -0.54527,2.35116 -2.91547,7.46237 -4.12963,8.90532 -0.42285,0.5025 -1.07305,0.91366 -1.44492,0.91366 -0.46709,0 -2.97296,-2.29835 -8.10524,-7.43397 z m -6.056096,-13.66436 c -0.92728,-0.1894 -1.74652,-1.45976 -1.52016,-2.35724 0.0976,-0.38703 2.75193,-3.26377 5.898486,-6.39278 6.99511,-6.95611 6.69271,-6.85432 9.72357,-3.27319 2.14219,2.53112 5.03149,7.80225 5.34891,9.75839 0.13907,0.85687 0.0334,1.2103 -0.50884,1.70138 -0.6463,0.58536 -1.17253,0.62231 -9.45863,0.66406 -4.82585,0.0243 -9.093346,-0.0209 -9.483336,-0.10065 z" id="path6234"></path><path style="fill:#e32c44;fill-opacity:0.3;stroke-width:1" d="m 769.25706,383.88493 c -5.34351,-0.15551 -6.08848,-0.25123 -6.94593,-0.89246 -1.581,-1.18234 -2.31059,-2.44038 -2.48839,-4.29074 -0.13916,-1.44825 -0.0107,-2.02029 0.74231,-3.30517 1.2462,-2.12648 2.54486,-2.81342 7.01327,-3.70977 6.61818,-1.32757 9.7251,-2.84185 12.7347,-6.20673 1.41269,-1.57944 3.12417,-4.67824 8.54657,-15.47437 l 6.78014,-13.49943 h 2.60409 2.6041 l 0.008,6.00942 c 0.009,6.72664 0.32468,8.01575 2.3922,9.75546 1.63833,1.37856 3.1328,1.64965 9.10591,1.6518 l 5.40923,0.002 1.47112,2.96629 c 0.80912,1.63145 1.47113,3.16506 1.47113,3.40801 0,0.73985 -4.86481,6.13789 -8.12713,9.01793 -8.84148,7.80545 -20.44177,13.01789 -31.60404,14.20087 -5.28266,0.55985 -5.18892,0.55692 -11.71693,0.36694 z m 55.28019,-28.31442 c -0.50951,-0.25409 -1.39587,-1.43159 -2.13592,-2.8375 -1.77032,-3.36318 -2.06943,-3.48518 -8.83781,-3.60467 -3.06568,-0.0541 -5.93701,-0.17837 -6.38075,-0.27612 -1.46844,-0.32347 -1.80601,-1.95036 -1.80601,-8.70366 v -6.13451 l -1.01832,-1.01831 c -0.87918,-0.87918 -1.2807,-1.01832 -2.93849,-1.01832 -2.02774,0 -3.69237,-0.46509 -4.13043,-1.15401 -0.46876,-0.73722 -0.28929,-2.20814 0.33595,-2.7533 1.03045,-0.89848 4.53526,-2.01054 7.25481,-2.30192 3.56989,-0.38248 7.34629,0.0925 10.51379,1.32247 3.16689,1.22972 3.2959,1.144 3.1415,-2.08733 -0.0765,-1.60069 -0.38928,-2.8449 -1.0597,-4.21519 -1.21913,-2.49181 -1.24095,-4.09382 -0.0707,-5.19319 1.09988,-1.03328 2.96145,-1.10179 4.01709,-0.14782 1.01624,0.91837 2.3122,3.54761 2.94374,5.97226 0.66738,2.56222 0.65451,5.35384 -0.0358,7.77105 -0.99257,3.47552 -0.99689,3.38499 0.22794,4.77999 1.59959,1.82187 3.70069,6.47581 4.13659,9.16278 0.6743,4.15594 0.2809,8.94425 -0.929,11.30721 -0.8532,1.66638 -1.617,1.93373 -3.22844,1.13009 z" id="path7609"></path><path style="fill:#e32c44;fill-opacity:0.3;stroke-width:0.999999" d="m 669.5969,591.49498 c -5.22257,-0.78392 -10.22296,-4.73798 -13.79742,-10.9103 -2.79426,-4.82508 -4.59701,-13.99258 -3.85371,-19.59711 1.05606,-7.96275 3.94482,-13.19537 8.52696,-15.44551 1.70181,-0.8357 2.05331,-0.88835 5.78595,-0.86658 3.77511,0.022 4.14915,0.085 7.47124,1.25785 4.41118,1.55736 7.09562,1.65887 10.36373,0.39189 5.5165,-2.13864 10.99624,-2.41522 14.44281,-0.72896 3.42366,1.67503 5.45989,4.35006 7.1652,9.41301 1.24328,3.69121 1.67905,7.8558 1.27177,12.15422 -0.77492,8.17859 -3.58186,14.65109 -8.42203,19.4203 -4.7612,4.6914 -9.80197,5.99343 -16.23111,4.19252 l -2.85494,-0.79973 -2.86772,0.77082 c -3.39608,0.91285 -4.85898,1.06906 -7.00073,0.74758 z m 9.45757,-49.44085 c -1.12826,-0.23415 -1.43881,-1.21224 -1.2893,-4.06073 0.29787,-5.67509 3.69727,-9.10628 9.50448,-9.59336 2.04583,-0.17159 2.45725,-0.11576 3.12047,0.4235 0.68316,0.55546 0.7607,0.85982 0.7333,2.87848 -0.0386,2.84138 -0.43965,4.33746 -1.65456,6.17164 -1.07338,1.62051 -2.70371,2.87244 -4.61876,3.54675 -1.43037,0.50366 -4.69974,0.86114 -5.79563,0.63372 z" id="path7611"></path><path style="fill:#e32c44;fill-opacity:0.3;stroke-width:1" d="m 912.8989,590.48591 c -6.41491,-1.19466 -13.04654,-4.54746 -17.64604,-8.92143 -1.52993,-1.45492 -1.93328,-2.3002 -1.69744,-3.55728 0.24358,-1.29841 1.19881,-2.00239 2.71704,-2.00239 0.95273,0 1.48219,0.28555 2.97002,1.60179 3.73857,3.30741 8.20746,5.74275 12.93897,7.0511 1.52362,0.42132 3.18842,0.54283 7.41969,0.54152 6.20902,-0.002 8.09215,-0.3574 12.35046,-2.3313 3.7051,-1.71745 6.1601,-3.4818 9.3149,-6.69449 6.1446,-6.25723 8.944,-13.77684 8.4765,-22.76918 -0.3588,-6.90141 -2.8944,-13.09024 -7.3878,-18.03192 -2.3103,-2.5408 -2.6992,-3.75436 -1.6273,-5.07771 1.6161,-1.99506 3.3546,-1.59827 5.8416,1.33329 8.3854,9.88421 10.9497,22.14779 7.1987,34.42646 -3.452,11.2994 -13.4628,20.83763 -25.06267,23.8795 -3.8712,1.01515 -11.82775,1.29303 -15.80663,0.55204 z m 6.56058,-9.53791 -0.79353,-0.62419 v -9.90449 c 0,-9.4407 0.0286,-9.93037 0.61089,-10.45735 0.38978,-0.35272 0.86934,-0.4866 1.32487,-0.36981 0.86964,0.22295 14.75929,14.12193 15.02869,15.0388 0.3269,1.11249 -0.896,2.17676 -4.57871,3.98466 -2.44501,1.20031 -4.25378,1.85776 -5.99524,2.17916 -4.47085,0.82511 -4.73367,0.83231 -5.59697,0.15322 z m -9.92051,-1.51592 c -2.78972,-1.20753 -6.0451,-3.33747 -8.04039,-5.26066 -1.40915,-1.35824 -1.58813,-1.66722 -1.40928,-2.43302 0.13671,-0.58538 2.13462,-2.76961 6.00617,-6.56627 6.11138,-5.99319 6.63253,-6.3276 7.89449,-5.06565 0.59508,0.59507 0.62347,1.0391 0.62347,9.75019 0,7.75587 -0.0729,9.23079 -0.48527,9.81956 -0.66665,0.95176 -1.98885,0.88142 -4.58919,-0.24415 z m 21.7997,-15.53721 c -10.169,-10.17562 -10.33756,-9.76036 3.91193,-9.63777 7.3789,0.0635 9.6633,0.17568 9.9754,0.48994 0.5409,0.54469 0.4351,3.99161 -0.2075,6.76282 -0.5453,2.35116 -2.9155,7.46237 -4.1297,8.90532 -0.4228,0.5025 -1.073,0.91366 -1.4449,0.91366 -0.4671,0 -2.9729,-2.29835 -8.10523,-7.43397 z m -6.0561,-13.66436 c -0.92728,-0.1894 -1.74652,-1.45976 -1.52016,-2.35724 0.0976,-0.38703 2.75193,-3.26377 5.89849,-6.39278 6.9951,-6.95611 6.6927,-6.85432 9.7236,-3.27319 2.1422,2.53112 5.0315,7.80225 5.3489,9.75839 0.1391,0.85687 0.033,1.2103 -0.5089,1.70138 -0.6463,0.58536 -1.1725,0.62231 -9.4586,0.66406 -4.82584,0.0243 -9.09334,-0.0209 -9.48333,-0.10065 z" id="path7613"></path><g id="g7617" transform="matrix(0.37139664,0,0,0.37139664,460.5197,218.77372)" style="fill:#e32c44;fill-opacity:0.3;stroke-width:2.69254" inkscape:export-filename=".\pattern-rojo.png" inkscape:export-xdpi="72" inkscape:export-ydpi="72"><path style="fill:#e32c44;fill-opacity:0.3;stroke-width:2.69254" d="m 152.63364,353.80764 c -7.82606,-2.34447 -14.33034,-9.76988 -16.62641,-18.98103 -0.97152,-3.89745 -0.78938,-5.80326 1.33794,-14 3.8001,-14.64205 4.01383,-17.57993 2.10804,-28.97735 -4.30991,-25.77516 2.00744,-48.77677 19.6921,-71.69938 19.20814,-24.89732 53.23949,-40.23366 80.6143,-36.3291 17.36031,2.47615 21.30898,2.43023 32.19632,-0.37446 11.61502,-2.99214 15.15452,-3.18604 20.93428,-1.14683 5.99821,2.1163 10.42859,5.86304 13.34336,11.28441 3.51195,6.53211 4.14426,11.60424 2.27566,18.25433 -4.61733,16.43237 -4.92522,19.6928 -3.01176,31.89369 3.12308,19.91379 1.11669,34.71595 -6.99506,51.60631 -18.4653,38.44858 -60.55789,62.9059 -96.58034,56.1167 -11.87181,-2.2375 -18.94895,-2.02807 -29.4291,0.87088 -9.25644,2.56045 -14.86246,2.97876 -19.85933,1.48183 z m 18.99324,-88.96941 c 0.65434,-1.375 3.01555,-6.325 5.24713,-11 7.67109,-16.07041 18.97425,-26.81012 35.42873,-33.66264 4.87451,-2.03 9.2634,-4.52668 9.83503,-5.59478 1.44619,-2.70224 0.27435,-6.42644 -2.61856,-8.32195 -2.25541,-1.4778 -2.8669,-1.46906 -7.73412,0.11048 -19.66793,6.38276 -38.07565,22.85385 -47.0802,42.127 -4.8227,10.32241 -5.60948,14.68484 -3.14052,17.41302 2.64991,2.92812 8.45331,2.31036 10.06251,-1.07113 z" id="path7615"></path></g></g></svg> 